<svg width="949" height="463" viewBox="0 0 949 463" fill="none" xmlns="http://www.w3.org/2000/svg">
<path fill-rule="evenodd" clip-rule="evenodd" d="M823.75 391L818.25 389.625L789.75 391L788.75 392L787.75 391L786.75 392H775.75L774.75 391L773.75 392L772.75 391H771.75L770.75 392L769.75 391H762.75L761.75 392L760.75 391H758.75L757.75 392L756.75 391L755.75 392L754.75 391L753.75 392H740.75L739.25 390.5V388.5L740.75 387L802.25 384.25L807.25 383.625L817.75 383L818.75 384L819.75 383L820.75 384L826.25 384.75L828 385.25L828.25 386.5L829.25 387.5L826.75 390H824.75L823.75 391Z" fill="black"/>
<path fill-rule="evenodd" clip-rule="evenodd" d="M681.75 392L677.25 391.5L658.5 387.75L658.25 385.5L659.75 384L673.25 385.5L680.75 387L682.25 388.5V389.5L683.25 390.5L681.75 392Z" fill="black"/>
<path fill-rule="evenodd" clip-rule="evenodd" d="M613 381.875L608.25 381.5L591.75 377L589.25 374.5L589.375 370.25L592.75 370L594.75 372L597.25 372.375L610.75 376L613.25 378.5L613 381.875Z" fill="black"/>
<path fill-rule="evenodd" clip-rule="evenodd" d="M814.25 462.375L701.75 460L700.75 459L699.75 460L685.75 458L684.75 459L683.75 458H662.75L661.75 457L660.75 458L659.75 457L658.75 458L654.75 457L653.75 458L652.75 457L651.75 458L650.75 457L649.75 458L648.75 457L611.75 455L610.75 454L609.75 455H603.75L602.75 454L601.75 455L600.75 454H599.75L598.75 455L597.75 454H595.75L594.75 455L593.75 454L561.75 453L560.75 452L559.75 453L558.75 452L551.25 451.375L524.25 446.375L484.25 435.5L479.25 433.5L469.75 429L464.25 425.5L450.25 418.625L447.75 418L445.75 416L444.5 415.75L434.25 402.5L432.875 400L432 397L431.25 386.5L432.75 385H434.75L438.25 388.5L437.75 392L437.875 395L439.75 399L443.25 404.5L450.75 412L452.25 412.375L457.25 414.5L482.25 427.375L493.25 431.5L529.25 440.5L540.75 442L541.75 443L542.75 442L543.75 443L552.75 444L553.75 445L554.75 444L561.75 445L562.75 446L563.75 445L565.25 445.375L568.75 446L569.75 445L570.75 446L598.75 448L599.75 447L600.75 448L621.75 449L622.75 448L623.75 449L631.75 450L632.75 449L633.75 450L674.75 452L675.75 451L676.75 452L715.75 453L716.75 454L717.75 453L814.75 456L815.75 455L816.75 456L817.75 455L828.25 454.25L831.25 454.625L835 456.25L835.25 458.5L833.75 460L827.25 461.375L814.25 462.375Z" fill="black"/>
<path fill-rule="evenodd" clip-rule="evenodd" d="M762.25 339.5L752.75 339L751.75 338L750.75 339L749.75 338H747.75L744.25 334.5L743.875 333L743.25 329.5L744.75 328H745.75L747.75 326L750.25 325.375L754.25 323.75L759.25 322.625L767.75 322L770.25 324.5L768.75 326L757.25 328.5L750.75 331H750.25L750.75 332L755.25 333.375L762.25 333.5L767.25 332.5L774 331.875L774.25 330.5L776.75 328L780.125 328.25L780.25 333.5L776.75 337L762.25 339.5Z" fill="black"/>
<path fill-rule="evenodd" clip-rule="evenodd" d="M745.75 364L725.25 363.25L697.25 359.375L691.25 357.375L689.25 356.5L686.75 355L676.75 347L675.25 345.5L674.625 342L674.875 334L675.25 332.5L678.75 329L680.25 328.5L682.25 327.5L688.75 323L691.25 321.625L693.75 321L695.75 319L697.25 318.625L708.25 314.5L731.25 308.625L739.25 308.75L741 309.25L741.25 310.5L742.25 311.5L740.75 313L732.25 313.75L708.25 320.625L698.25 324.5L685.25 332.5L683.75 333L680.25 336.5L681.25 337.5L680.25 338.5L681.25 339.5L680.25 340.5V341.5L687.75 349H688.75L690.75 351L693.25 351.625L698.25 353.5L710.25 355.75L714.25 355.25L724.25 357.375L732.75 358L733.75 359L734.75 358L745.25 358.875L747 359.25L747.25 360.5L748.25 361.5L745.75 364Z" fill="black"/>
<path fill-rule="evenodd" clip-rule="evenodd" d="M574.75 367L572.25 366.5L565.5 363.75L564.25 359.5V359L563.25 359.5V360.5L561.75 362H559.75L558.25 360.5L557.375 354.25L561.75 353L562.75 352L563.75 353H564.75L566.25 354.5L565.25 355.5L565.5 356.75L569 357.25L569.5 358.75L571.25 359.5L573.25 360.5L574.75 361L576.25 362.5V363.5L577.25 364.5L574.75 367ZM565.25 358V357H564.25V358H565.25Z" fill="black"/>
<path fill-rule="evenodd" clip-rule="evenodd" d="M558.25 349.5L556.75 350L554.25 347.5L554.875 345L556.5 341.25L563.25 336.5L572.25 331.5L573.75 331L578.75 326H580.75L582.75 324L586.25 323.5L598.25 320.5L601.25 320.625L602.75 321L604.25 322.5L601.75 325L600.25 325.375L597.25 326.5L586.25 329.625L584.25 330.5L581.25 332.5L573.75 338L564.75 343L560.25 347.5L560 348.75L558.25 349.5Z" fill="black"/>
<path fill-rule="evenodd" clip-rule="evenodd" d="M484.25 339H483.25V338H484.25V339Z" fill="black"/>
<path fill-rule="evenodd" clip-rule="evenodd" d="M439.25 384.375L436.75 385L435.25 383.5L434.25 374.5L433.25 373.5L434.25 372.5V370.5L436.25 368.5V366.5L438.25 364.5L438.5 363.25L440 362.75L445.25 353.5L453.75 345L456.25 343.5L459.75 341L476.25 332.625L478.75 332L480.75 330L487.25 326.5L488.75 326L490.75 324H502L502.25 325.5L503.25 326.5L502.25 327.5V328.5L499.75 331L493.25 331.75L481.25 338.5L479.75 339L477.75 341L475.25 341.625L467.25 345.5L460.75 350L458.75 351L452.25 357.5L451.75 359L450.75 361L450 362.75L448.75 363L448.25 363.5L449.25 364.5L448.75 365H447.75L446.25 366.5V368.5L444.75 370L443.5 370.25L443 372L441.5 382L441 383.75L439.25 384.375Z" fill="black"/>
<path fill-rule="evenodd" clip-rule="evenodd" d="M622.75 318L618.25 319.25L613.75 320L612.25 318.5V316.5L613.75 315L615.25 314.5L626.25 309.5L642.25 304.5L667.25 300.5L689.25 295.5H693.25L695.75 296L697.25 297.5L697 299.75L695.25 300.25L686.25 301.75L654.25 308.5L649.75 309L648.75 310L647.75 309L646.75 310L642.25 310.5L635.25 312.5L628.25 315.375L624.75 316L622.75 318Z" fill="black"/>
<path fill-rule="evenodd" clip-rule="evenodd" d="M366.25 239.5L337.25 244.25L313.75 245L312.75 246L311.75 245L302.25 246.5L295.25 246.375L290.75 247L289.75 248L288.75 247L287.75 248L286.75 247L278.75 248L277.75 249L276.75 248L273.25 248.625L271.75 249L270.75 248L269.75 249H267.75L266.75 248L265.75 249L264.75 248H262.75L261.75 249L260.75 248L255.25 248.75L253.25 248.5L251.75 248L250.75 249L249.75 248L226.75 249L225.75 248L224.75 249L223.75 248H220.75L219.75 249L218.75 248L217.75 249L137.75 250L136.75 249L135.75 250L134.75 249L122.75 248L121.75 247L120.75 248L103.25 245.375L75.25 238.5L69.25 236.375L59.25 231.5L54.25 228.625L49.25 226.5L28.75 216L21.75 211L13.5 205.75L13 204.25L11.75 204L9.25 201.5V200.5L8.25 199.5L10.75 197L11.75 198L12.75 197L14.75 199L16.75 200L23.25 204.5L25.75 206L32.25 210.5L33.75 211L35.75 213L38.25 213.625L48.25 218.375L50.75 219L52.75 221L54.25 221.375L59.25 223.5L70.25 229.375L75.25 231.375L107.25 239.25L138.75 242L139.75 243L140.75 242L141.75 243L142.75 242L143.75 243L148.25 242.25L150.25 242.5L151.75 243L152.75 242L153.75 243L154.75 242L161.75 243L162.75 242L163.75 243H164.75L165.75 242L166.75 243L189.75 242L190.75 243L191.75 242H212.75L213.75 241L214.75 242L215.75 241H225.75L226.75 242L227.75 241L230.75 242L231.75 241L232.75 242L233.75 241L242.75 242L243.75 241L244.75 242H245.75L246.75 241L247.75 242L253.75 241L254.75 242L255.75 241H261.75L262.75 242L263.75 241L270.75 242L271.75 241L272.75 242L282.75 241L283.75 240L284.75 241L287.25 240.5L290.25 239.375H292.25L295.75 240L296.75 239L297.75 240L298.75 239H299.75L300.75 238L301.75 239L302.75 238L303.75 239L327.75 238L328.75 239L329.75 238L330.75 239L361.25 234.5L371.25 231.625L376.75 231L378.25 232.5L378 235.75L366.25 239.5Z" fill="black"/>
<path fill-rule="evenodd" clip-rule="evenodd" d="M367.25 185.375L345.25 189.5L330.25 192.375L310.25 194.5L272.25 199.5L267.25 200.75L265.75 201L264.75 200L263.75 201L262.75 200L261.75 201L260.75 200L209.25 201.25L207.75 201L205.75 199L200.75 198L199.25 196.5L199.5 193.25L203.75 192L204.75 193L205.75 192L206.75 193H208.75L211.75 196L221.75 195L222.75 194L223.75 195L224.75 194L237.75 195L238.75 194L239.75 195L240.75 194L252.75 193L253.75 194L254.75 193L255.75 194L298.25 190.5L311.75 188L312.75 187L313.75 188L314.75 187H325.75L326.75 186L327.75 187L328.75 186L333.25 185.5L353.25 180.5L365.25 178.375L373.25 175.5L375.75 175L377.75 173H380.75L381.75 172L382.75 173L384 173.25L384.25 174.5L385.25 175.5L384.25 176.5V177.5L382.75 179L381.25 179.5L376.25 182.375L367.25 185.375Z" fill="black"/>
<path fill-rule="evenodd" clip-rule="evenodd" d="M404.75 156L403.25 155.625L398.5 153.75L398.25 150.5L400.75 148L404 147.75L404.75 146L409.25 139.5L412.25 136.5L413.25 124.5L415.75 122H416.75L419.25 124.5L419.625 126L420 129L418.5 139L415.75 144L415.25 145.5L408.75 152L407.5 152.25L407.25 153.5L404.75 156Z" fill="black"/>
<path fill-rule="evenodd" clip-rule="evenodd" d="M255.25 136.25H237.25L231.75 135L227.25 130.5L226.625 127V125L227.25 122.5L233.75 116H235.75L237.75 114L248.25 113.75L250.25 114.5L252.25 114.75H258.25L261.75 116L263.25 117.5L266.625 123L267.25 125.5L268.25 126.5L267.25 127.5V129.5L265.75 131L259.25 135.375L255.25 136.25ZM237.25 125V124H236.25V125H237.25ZM255.75 129L258.25 126.5L257 122.25L255.75 122L253.75 120L249.75 124L248.25 123.5L246.25 122.5L244.75 122L243.75 121L241.75 123L238.75 124L236.25 126.5L236.5 127.75L239.25 128.25L255.75 129Z" fill="black"/>
<path fill-rule="evenodd" clip-rule="evenodd" d="M115.75 163L111.25 162.5L107.25 161.375L103.25 159.5L98.75 157L96.25 154.5V153.5L94.25 151.5L93.25 144.5L92.25 143.5L93.25 142.5L96 131L97.25 127.5L98.75 126L103 127.25L103.25 129.5L102.25 130.5L103.25 131.5L102.25 132.5L101.625 138L100.875 141L101 147L101.25 148.5L104.75 152L106.25 152.5L117 157.25L117.25 159.5L118.25 160.5L115.75 163Z" fill="black"/>
<path fill-rule="evenodd" clip-rule="evenodd" d="M429.75 223L427.75 225L424.25 225.625L409.25 230.5L406.25 230.375L404.5 229.75L404.25 228.5L403.25 227.5L404.25 226.5V225.5L405.75 224L408.25 223.375L426.25 216.625L428.75 216L430.75 214L433.25 213.5L436.25 212.375L437.75 212L439.75 210L442.25 209.375L448.25 206.5L461 198.75L461.5 197.25L463 196.75L466.75 191L470.25 184.5L472.25 182.5L472.75 178L474.375 169L474.5 147L473.625 141L470.5 129L469.75 127L462.75 114L459.25 108.5L451.75 101L445.25 96.5L441.25 94.625L438.75 94L436.75 92L435.5 91.75L435.25 89.5L436.75 88L438.25 87.5L440.25 87.375L446.25 89.625L448.75 91L456.25 96.5L458.75 98L463.25 102.5L468.75 110L469.25 111.5L471.25 113.5L471.875 116L474.25 120.5L476.25 122.5L480.875 139L481.75 141V143L481.375 145L481.5 169L480.75 174L478.25 186.5L476.25 188.5L471.75 197L467.25 203.5L465.75 205L463.75 206L457.25 210.5L450.25 214.5L448.75 215L446.75 217L444.25 217.625L432.25 222.375L429.75 223Z" fill="black"/>
<path fill-rule="evenodd" clip-rule="evenodd" d="M408.25 112.375L404.75 113L403.25 111.5V108.5L400.25 105.5L399.25 101.5L395.75 98L390.75 95L389.25 93.5V92.5L386.75 90L385.25 89.5L375.25 85.5L364.25 80.5L362.75 80L360.25 77.5V76.5L361.75 75L363.25 74.5L365.25 74.375L369.25 75.5L374.25 77.5L387.25 82.625L391.75 85L394.25 87.5L394.5 88.75L401.25 93.5L403 94.25L405.625 99L406.25 101.5L407.75 103H408.75L411.25 105.5L410.5 110L410 111.75L408.25 112.375Z" fill="black"/>
<path fill-rule="evenodd" clip-rule="evenodd" d="M336.25 68H335.25V67H336.25V68Z" fill="black"/>
<path fill-rule="evenodd" clip-rule="evenodd" d="M301.25 156.5L296.25 157.75L278.75 161L277.75 160L276.75 161L240.75 163L239.75 164L238.75 163L237.75 164H236.75L235.75 163L234.75 164L229.25 163.125L205.25 162.25L187.25 159.25L184.25 158.375L182.25 157.625L179.75 157L177.75 155L175.25 153.5L171.75 151L169.25 149.5L167.75 149L162.25 143.5L160.875 137V130L161.75 126L163.875 119L167.25 113.5L173.75 107L175.75 106L182.25 101.5L191.25 97.5L198.25 95.375L203.25 93.5L211.25 91.5L217.25 90.5L224.25 88.625L228.75 88L229.75 87L230.75 88L231.75 87H242.75L243.75 86L244.75 87L259.75 86L262.75 83L264.25 82.625L267.75 82L270.25 84.5L270.5 86L279.25 86.5L285.25 87.75L292.25 91.375L307.25 95.5L312.25 97.375L314.75 98L316.75 100L322.25 103.5L326.75 106L329.75 108L331.75 109L336.25 113.5L337.25 116.5L339.25 118.5V120.5L340.25 121.5L339.25 122.5L341.25 124.5L340.25 125.5L340.5 127V135L339.75 137L337.75 141L337.25 142.5L333.75 146L329.75 148L327.75 150L325.25 150.625L319.25 153.25L308.75 156L307.75 155L306.75 156L301.25 156.5ZM301.25 149.625L308.25 148.375L319.25 145.625L328.25 141.5L329.75 141L331.25 139.5L333.75 135L334.625 133L334.75 130L333.625 126L331.625 121L331.25 119.5L325.75 114L321.75 113L320.75 114L320.25 113.5V112.5L318.75 111L317.75 112L315.75 110L314.75 111L311.75 108L310.25 107.5L306.25 105.625L288.25 100.375L284.25 98.75L270.25 96.375L264.5 94.75L264 93.25L260.25 93.625L258.25 94.5L256.25 94.75L243.75 95L242.75 94L241.75 95H239.75L238.75 96L237.75 95L226.75 96L224.75 98L223.75 97L222.75 98L221.75 97L220.75 98L211.25 99.5L200.25 102.5L192.25 105.5L188.25 106.625L186.25 107.5L183.75 109L180.25 111.5L177.75 113L174.25 116.5L170.875 122L168.75 131V135L169.875 138L170.25 139.5L172.75 142L174.25 142.5L177.25 144.5L181.25 147.5L183.75 149L185.75 151L208.25 155.25L220.75 156L221.75 157L222.75 156H223.75L224.75 157L225.75 156H226.75L227.75 157L228.75 156H232.75L233.75 157L234.75 156L235.75 157L236.75 156L239.75 157L240.75 156L241.75 157L242.75 156L284.25 153.375L301.25 149.625ZM257.25 94V93H256.25V94H257.25ZM289.25 100V99H288.25V100H289.25ZM297.25 102V101H296.25V102H297.25ZM335.25 114V113H334.25V114H335.25Z" fill="black"/>
<path fill-rule="evenodd" clip-rule="evenodd" d="M178.25 199.125L162.75 200L161.75 199L160.75 200L141.25 199.125L135.25 197.625L120.25 195.25L115.25 193.375L110.5 190.75L110.25 189.5L108.75 188L107.75 189L106.25 187.5V186.5L102.75 183L101.25 182.5L96.75 180L94.75 178L93.75 179L90.25 175.5L90 174.25L88.75 174L85.25 170.5L84.25 166.5L82.25 164.5L81.25 162.5L76.875 156L75.75 153L74.875 150L73 140V130L73.75 128L77.25 122.5L78.25 120.5L86.75 112L95.75 105L100.25 100.5V99.5L104.75 95L106.75 94L125.25 79.5L150.25 69.375L151.75 69L152.75 68L153.75 69L154.75 68L156.25 67.625L180.25 59.5L183.75 59L184.75 58L185.75 59L186.75 58L193.75 57L194.75 56L195.75 57L196.75 56H201.75L202.75 55L203.75 56L227.75 51L228.75 52L229.75 51L230.75 52L231.75 51L290.25 51.625L322.25 55.5L338.75 59L340.75 61H341.75L345.25 64.5V69.5L343.75 71L340.5 70.75L339 67.25L333.25 65.5L329.25 65.625L327.75 66L325.75 64L324.75 65L323.75 64L322.75 65L321.75 64H319.75L318.75 63L317.75 64H316.75L314.75 62H311.75L310.75 63L309.75 62L308.75 63L306.75 61L303.25 61.625L301.75 62L300.75 61L299.75 62L298.75 61H293.75L292.75 60L291.75 61L290.75 60H289.75L288.75 61L287.75 60H285.75L284.75 59L283.75 60L282.75 59H240.75L239.75 60L238.75 59L237.75 60L236.75 59H235.75L234.75 60L233.75 59L232.75 60L224.25 60.625L220.25 61.5L217.25 62.5L198.75 65L197.75 66L196.75 65L195.75 66L181.25 68.5L177.25 69.5L138.25 82.625L128.25 87.5L120.75 93L118.75 94L117.25 95.5L117 96.75L115.5 97.25L115.25 98.5L113.75 100L112.25 100.5L110.25 101.5L108.5 102.25L106.25 106.5L104.75 108L103.5 108.25L103 109.75L101.5 110.25L101 111.75L94.75 116L84.25 126.5L80.875 133L80.625 136L82.25 144.5L83.25 145.5L82.25 146.5L83.25 147.5L83.875 151L89.75 161L90.625 163L91.25 165.5L94.25 168.5L94.5 169.75L96 170.25L96.25 171.5L97.75 173L99.25 173.5L103.25 175.5L113.25 183.5L117.75 186L119.75 188L138.25 190.75L145.25 192.375L175.75 193L176.75 192L177.75 193H179.75L181.25 194.5V197.5L179.75 199L178.25 199.125Z" fill="black"/>
<path fill-rule="evenodd" clip-rule="evenodd" d="M4.75 162L2.75 161L1.25 159.5L0 152L0.125 124L1.875 115L2.875 112L4.75 108L8.25 103.5L15.25 95.5L19.25 90.5L20.75 89L23.25 87.5L26.75 85L28.75 84L30.75 82L36.125 82.125L36.25 86.5L32.75 90L30.75 91L27.75 93L25.5 94.25L21.25 99.5L14.25 107.5L10.75 112L8.75 117L7.125 124V154L9.25 158.5L6.75 161H5.75L4.75 162Z" fill="black"/>
<path fill-rule="evenodd" clip-rule="evenodd" d="M509 209.875H504.5L503.75 208V206L504.75 204L505.5 202.25L510.75 198L518.75 191L522.75 188L538.25 172.5V171.5L540.25 169.5L541.25 160.5L542.25 159.5L541.25 158.5L542.75 150L546.25 134.5L545.25 133.5L546.25 132.5L545.25 131.5L541.625 110L540.875 107L540.25 102.5L535.25 97.5V96.5L532.75 94H531.75L526.25 88.5L523 83.25L515.5 77.75L515.25 76.5L510.75 72L493.25 58.5L488.25 55.625L485.25 54.5L481.25 53.5L473.25 50.375L471.25 49.875L459.75 49L457.25 46.5V45.5L459.75 43L470.25 42.625L474.25 43.5L489.25 48.625L497.25 52.5L509.75 62L526.75 77L529.25 79.5L543.75 96L544.25 97.5L546.25 99.5L546.875 102L547.625 104L549.75 113L550.25 118.5L551.25 119.5L550.25 120.5L550.75 124L552.5 129L553.25 133.5L554.25 134.5L553.25 135.5L552.75 142L551.25 149.5L550.25 150.5L551.25 151.5L550.25 152.5L549.25 159.5L548.25 160.5L549.25 161.5L548.75 165L545.625 174L543.25 178.5L540.75 181L539.5 181.25L539 182.75L511.5 206.25L511 207.75L509.5 208.25L509 209.875Z" fill="black"/>
<path fill-rule="evenodd" clip-rule="evenodd" d="M441.25 7H440.25V6H441.25V7Z" fill="black"/>
<path fill-rule="evenodd" clip-rule="evenodd" d="M451.25 17.25L375.75 11L374.75 10L373.75 11L372.75 10L363.25 9.25L356.75 10L355.75 9L354.75 10L323.75 8L322.75 9L321.75 8H307.75L306.75 9L305.75 8L281.25 9.5L237.75 13L236.75 12L235.75 13L227.25 13.625L150.25 30.5L129.5 37.25L129 38.75L127.25 39.5L125.25 39.625L122.75 39L121.25 37.5V34.5L124.75 31L137.25 27.5L147.25 23.625L164.25 19.5L170.25 17.625L231.25 5.5L327.75 0L328.75 1L329.75 0L380.75 2L381.75 3L382.75 2L383.75 3L417.75 5L418.75 6L419.75 5L420.75 6L436.75 7L437.75 6L438.75 7L441.75 8L442.75 7L443.75 8L452 10.25L453.25 12.5L453.75 15L453 16.75L451.25 17.25Z" fill="black"/>
<path fill-rule="evenodd" clip-rule="evenodd" d="M941.75 455L940.25 455.25L930.25 455.625L928.75 456L927.75 455L926.75 456L918.5 456.875L918.25 453.5L919.75 452L921 451.75L921.5 450.25L923 449.75L923.5 448.25L926.25 447.625L932.75 447L933.75 448L934.75 447L942 449.25L942.25 450.5L943.25 451.5L942.25 452.5L943.25 453.5L941.75 455Z" fill="black"/>
<path fill-rule="evenodd" clip-rule="evenodd" d="M879.25 415.5L874.75 416L873.75 417L872.75 416L871.75 417L835.25 422.5L831.25 423.5L794.75 428L793.75 429L792.75 428L791.75 429L766.75 431L765.75 430L764.75 431H746.75L745.75 432L744.75 431H739.75L738.75 432L737.75 431H736.75L735.75 432L734.75 431H729.75L728.75 432L727.75 431L724.75 432L723.75 431L722.75 432L690.75 433L689.75 432L688.75 433H685.75L684.75 432L683.75 433H678.75L677.75 432L676.75 433L675.75 432L674.75 433H672.75L671.75 432L670.75 433L669.75 432H643.75L642.75 431L641.75 432L640.75 431L639.75 432L638.75 431L578.25 421.375L568.25 418.375L538.25 407.375L530.25 403.5L528.75 403L520.25 394.5L516 388.25L514.5 387.75L514.25 386.5L512.25 384.5L511.625 382V380L512.25 377.5L513.75 376H515.75L517.25 377.5V378.5L518.25 379.5L517.25 380.5L518.25 381.5L525.25 390.5L531.75 397L533.25 397.5L568.25 411.375L586.25 416.5L639.75 424L640.75 425L641.75 424L658.75 425L659.75 426L660.75 425L661.75 426L662.75 425L665.75 426L666.75 425L667.75 426L668.75 425L669.75 426L670.75 425L671.75 426L703.75 425L704.75 426L705.75 425L706.75 426L707.75 425L713.75 426L714.75 425L715.75 426L716.75 425H758.75L759.75 424L760.75 425L761.75 424L830.25 417.375L865.25 411.5L897.25 402.5L911.25 396.75L916 396.125L916.625 398V401L916 402.75L896.25 410.5L885.25 413.625L883.25 414.375L879.25 415.5Z" fill="black"/>
<path fill-rule="evenodd" clip-rule="evenodd" d="M942.25 347.5L936.75 352.5L933.75 354L925.25 359.5L888.25 375.625L886.75 376L885.75 375L884.75 376L883.25 374.5V372.5L884.75 371L890.25 369.375L904.25 362.5L909.25 359.625L914.25 357.625L916.75 357L919.75 354H921.75L924.75 351L926.75 350L929.75 348L931.75 347L936.25 342.5L937.25 339.5L940.25 336.5L940.875 333L941.25 331.5L942.75 330H943.75L944.75 329L948.25 332.5L947.25 340.5L943.25 344.5L942.25 347.5Z" fill="black"/>
<path fill-rule="evenodd" clip-rule="evenodd" d="M885.25 341.375L880.75 342L879.25 340.5L879.5 337.25L884.25 334.625L886.75 334L888.75 332L890 331.75V328.25L888.5 327.75L887.75 326L886.75 324L886.25 322.5L887.75 321L890.75 322L895.25 326.5L897.25 333.5L893.75 337L888.25 340.375L885.25 341.375Z" fill="black"/>
<path fill-rule="evenodd" clip-rule="evenodd" d="M877.75 307L876.75 306L875.75 307L854.75 310L853.75 309L852.75 310L851.75 309L828.25 308.25L808.75 306L807.75 305L806.75 306L805.75 305L802.25 304.375L798.25 302.625L794.25 301.375L787.25 298.5L783.25 297.5L778.25 295.5L773.75 293L768.25 287.5L767.25 280.5L769.25 278.5V277.5L773.75 273L775.75 272L781.25 268.5L789.25 264.625L795.75 263L797.25 264.5L796 269.75L794.75 270L793.75 271L792.75 270L791.25 270.5L782.75 275L775.5 280.25L774.25 284.5L776.75 287L783.25 290.375L793.75 293L795.75 295L798.25 295.5L803.25 297.375L806.25 298.25L825.25 301.25L846.75 302L847.75 303L848.75 302L850.25 302.25L860.25 302.375L892.25 297.375L895.25 296.5L900.25 294.625L904.25 293.5L909.25 291.5L913.25 289.5L914.75 289L922.25 281.5V278.5L918.75 275L905.75 273L903.25 270.5V268.5L905.75 266L911.25 264.375L913.25 264.25L918.25 265.75L920.25 266.5L922.25 267.5L923.75 268L929.25 273.5V276.5L930.25 277.5L929.25 278.5L929.75 280L929.875 282L929.25 285.5L919.75 295H918.75L916.75 297L914.25 297.5L892.25 304.5L878.75 306L877.75 307Z" fill="black"/>
<path fill-rule="evenodd" clip-rule="evenodd" d="M883.75 287L881.5 285.75L881.125 284L879.375 257L878.75 254L877.625 251L874.25 245.5L872.75 244L871.25 243.625H868.25L866.75 244L864.25 246.5V247.5L862.75 249L861.25 249.5L857.25 251.375L854.25 252.25L843.75 253L839.25 248.5L838.75 247L837.75 245L837.25 243.5L835.75 242L831.5 242.125L831.25 243.5L828.25 246.5L827.75 249L825.875 254L825.25 256.5L826.25 257.5L825.25 258.5L824.5 263L823.75 265L820 271.75L818.5 272.25L818.25 273.5L816.25 275.5V277.5L813.75 280L806.75 285L805.75 286L804.75 285H803.75L802.25 283.5V280.5L810.25 272.5L810.75 271L816.75 263L817.75 261L818.5 259L820.75 249L821.875 246L825.75 240L826.5 238.25L830.75 237L831.25 236.5L829.25 234.5L830.125 224L831.5 220.25L836.25 217.5L838.25 216.625L841.25 215.75L853.25 215.5L855.75 215L856.75 214L857.75 215L859.25 215.5L863.75 218L865.25 219.5V220.5L869.25 224.5L870.25 237.875L874.75 238L877.75 241L879 241.25L882.75 247L885.625 253L886.5 256L888.25 284.75L884.75 286L883.75 287ZM852.25 245.25L854.25 244.5L856.25 243.5L857.75 243L859.25 241.5L859.5 240.25L860.75 240L862.25 238.5L862.75 236L862.875 233L861.5 228L861.25 226.5L859.75 225H858.75L855.75 222L855.25 222.5V223.5L853.75 225L847.5 225.875L847.25 224.5L846.25 223.5L847.25 222.5L846.75 222L843.25 222.5L840.25 223.625L838.75 224L836.25 226.5L836.375 231.75L837.75 232L840.25 234.5L844.625 241L845.25 243.5L847.75 246L852.25 245.25Z" fill="black"/>
</svg>
