<svg width="1088" height="664" viewBox="0 0 1088 664" fill="none" xmlns="http://www.w3.org/2000/svg">
<path fill-rule="evenodd" clip-rule="evenodd" d="M123 645.375H122V644.375H123V645.375Z" fill="black"/>
<path fill-rule="evenodd" clip-rule="evenodd" d="M105 637.375H104V636.375H105V637.375Z" fill="black"/>
<path fill-rule="evenodd" clip-rule="evenodd" d="M75 586.375L82 587.125L92.5 590.375L103 600.875L104 602.875L110.5 612.375L111.375 614.375L112.375 617.375L113.75 624.375L116 631.875L117 632.875L116 633.875V635.875L114.5 637.375H110.5L108 634.875L107.625 632.375L104.375 618.375L103.375 615.375L101.5 612.375L91.75 599.625L86 596L80 593.875L76.5 593.375L74 590.875V588.375H74.5L75 587.875V586.375Z" fill="black"/>
<path fill-rule="evenodd" clip-rule="evenodd" d="M35 564.375H34V563.375H35V564.375Z" fill="black"/>
<path fill-rule="evenodd" clip-rule="evenodd" d="M288 545.375H287V544.375H288V545.375Z" fill="black"/>
<path fill-rule="evenodd" clip-rule="evenodd" d="M340.5 641.375L337.25 641.125L337 639.875L334 636.875V633.875L333 632.875L334 631.875L333.5 630.375L332.5 628.375L332 626.875L330 624.875L329.5 622.375L325 610.875L323 608.875V606.875L321 604.875V603.875L318.5 601.375L316 599.875L306 592.875L304 592L298.25 590.125L298 588.875L297.5 588.375L296.5 589.375L295 589.875L289 592.75L286 593.75L274.25 596.625L272.5 601.375L271.75 605.125L270.25 605.625L269.75 608.125L268.25 608.625L267.75 611.125L266.5 611.375L265 612.875L260.75 619.125L259.5 619.375L258 620.875V621.875L256.5 623.375L255.25 623.625L255 624.875L252.5 627.375L246 631.875L244.5 632.375L240 636.875V643.875L241 644.875L240 645.875L239.375 648.375L237 652.875L235.5 654.375H232.5L231 652.875L231.75 643.625L230 643.875L221 647.875L216.5 650.375L213.5 653.375L211 654L194 660.875L186 663.125L184.5 663.375L183.5 662.375L182.5 663.375L156 662.875L128 656.875L118 653L115.5 652.375L113.5 650.375L107.5 649.375L105.5 647.375L103 646.75L100.5 645.375L82.5 632.375L76 625.875L75.5 624.375L72 618.875L70 616.875V614.875L68 612.875L67 610.875L65 607.875L63.625 605.375L62.5 602.375L61.75 599.625L60.5 599.375L58.5 601.375L54 602.125H52L44 599.875L37 597L34 596.875L29 598.875L27 599.875L21.5 603.375L18 606.875L15.625 611.375L14.5 614.375L7.375 648.375L6.75 650.375L6 654.875L3.5 657.375H1.5L0 655.875L0.625 648.375L4.5 627.375L5.5 623.375L6.5 617.375L9 607.875L11 605.875L13 601.875L15.5 599.375L22 594.875L28.75 592.125L29 590.875L25 586.875L22.375 575.375V572.375L24.375 565.375L27 558.875L31.5 554.375L35.875 552.125L36 547.875L38.5 545.375H44.5L45.5 544.375L46.5 545.375H54.875L55 539.875L56 538.875L55 537.875L56 536.875V532.875L57 531.875L56 530.875L57 529.875L57.5 526.375L59.375 519.375L60 515.875L62 513.875L62.75 509.375L63.5 507.375L66.5 502.375L74 491.875L75.25 489.625L76.5 489.375L82 483.875V482.875L83.5 481.375L84.75 481.125L85.25 478.625L88.75 477.125L89 475.875L96.5 468.375L99.5 467.375L102.5 464.375L105 463.75L111 460L124 454.875L147 449.875L186 449.25L193.5 450.375L194.5 451.375L195.5 450.375L203.5 451.375L204.5 452.375L205.5 451.375L211 452.875L229 459.875L231 460.875L232.5 461.375L238.5 467.375H240.5L242.5 469.375L243.5 468.375L247 468.875L251 470L253 470.75L255.5 471.375L260 475.875L261.5 478.375L266 484.875L278.5 506.375L279 507.875L281 509.875L282.375 515.375L283.625 522.375L284.625 525.375L284.5 529.375L285 530.875L284 531.875L285 532.875L284 533.875L285 534.875L286 538.875L287 539.875L286 540.875V544.875L288.5 547.375L292.5 548.375L294 549.875L294.25 551.125L295.5 551.375L302 557.875L302.5 559.375L305.375 565.375L306 567.875L307 568.875L306 569.875L305.375 576.375L304.375 579.375L302 583.875L303.5 585.375H306.5L308.5 587.375H310.5L312.5 589.375L319 592.875L320.5 593.375L329 601.875L330 605.875L332 607.875L332.5 609.375L337.5 621.375L341.25 628.375L342 635.875L343 636.875L342 637.875V639.875L340.5 641.375ZM55 593.75L56.5 593.375L58 591.875L57.375 588.375L57 586.875L58 585.875L57 584.875L54 568.875L55 567.875L54 566.875V561.875L53 560.875L54 559.875V554.875L53.5 554.375L52.5 555.375L51.5 554.375L48.25 554.625L48 556.875L46.5 558.375H45.5L43.5 556.375L42.5 557.375L41 557.875L39 558.875L37.5 559.375L33 563.875L32.625 565.375L31.5 568.375L30.625 571.375L31 580.875L33 582.875V583.875L36.5 587.375L38.5 588.375L41.5 590.375L44 591.75L52 594L55 593.75ZM269.75 587.125L271.5 581.375L272.625 578.375L273 576.875L272 575.875L273 574.875L274 570.875L273 569.875L275 567.875L275.75 563.375L275.5 561.375V559.375L276 557.875L278 555.875V553.875L277 552.875L278 551.875L277.75 549.5L271 550.125L269.25 550.625L269 551.875L268.5 552.375L267.5 551.375L266.5 552.375L265.5 551.375H264.5L263.5 552.375L262.5 551.375L262 551.875L261.75 553.125L260.5 553.375L259.5 554.375L258.5 553.375L258 553.875L254 559.875L252 561.875L251.5 565.375L251.75 570.375L251.5 572.375V574.375L252 575.875L254 577.875V579.875L257.5 583.375L260 584L267 586.75L269.75 587.125ZM281 586L284 584.75L290.5 581.375L296 575.875L296.5 573.375L296.375 570.375L295.5 568.375L295 566.875L294 565.875L295 564.875L289.5 559.375L288.25 559.125L287.75 557.625L286.5 557.375L285 558.875L284 568.875L282 570.875L283 571.875L282 572.875L281.375 578.375L280.5 581.375L279.375 584.375L279.25 586.125L281 586ZM68 582.375V581.875L68.375 580.375L69.5 577.375L70.5 573.375L71 569.875L69 567.875V566.875L67 564.875L68 563.875L67 562.875V561.875L64.5 559.375L64 559.875L67 581.875L68 582.375ZM74 588.375L72 589.875V590.875L70 592.875L71 597.875L72 598.875L71 599.875L71.5 600.375L72.75 600.625L73 601.875L75 603.875L74 604.875L74.5 605.375H75.5L76 605.875L75 606.875L75.5 607.375H76.5L78 608.875L78.5 610.375L81 614.875L84 617.875V619.875L87.5 623.375H88.5L90 624.875L90.25 626.125L93.5 627.375L94 627.875L93 628.875L93.5 629.375L96.5 630.375L98 631.875V632.875L98.5 633.375L99.5 632.375L100 632.875V634.875L100.5 635.375L101.5 634.375L103 635.875V636.875L104.5 638.375L107.5 639.375L108.5 640.375L109.5 639.375L110 639.875V640.875L110.5 641.375L111.5 640.375L113.5 642.375L117.5 643.375L118.5 644.375L119.5 643.375L120 643.875L120.25 645.125L127 648L128.5 648.375L129.5 647.375L130 647.875L130.25 649.125L139.5 651.375L140.5 652.375L141.5 651.375L142.5 652.375L170 657.25L188 654.75L192 653.75L196 652L210 646.875L216 642.875L218 641.875L223 639.75L229.5 636.375L232 633.875L231.75 616.375L232.625 612.375L234.5 607.375L235 603.875L237 601.875L240 596.875L244.5 592.375L247.5 591.375L248.5 590.375L249.5 591.375L250.5 590.375H251.5L255 593.875V596.875L253.5 598.375H251.5L250.5 597.375L248 599.875L247.75 601.125L246.5 601.375L245 602.875V603.875L242 606.875V608.875L241 609.875L242 610.875L241 611.875L239.75 617.375L239 627.875L239.5 628.375L243.5 624.375H244.5L256 612.875L262.5 604.375L265.5 597.375L265.75 595.625L259 593L256.5 592.375L254.5 590.375L250.5 588.375L247 584.875L244.625 580.375L243.625 577.375L242.5 570.375V565.375L244 556.875L246 554.875V553.875L253.5 546.375L255 545.875L257 545L260 544.125L276.75 542.25L276.5 538.375L275 531.875L276 530.875L275 529.875L274.5 524.375L272.375 515.375L271.625 513.375L271 510.875L269 508.875L268.5 507.375L264.5 499.375L259.5 491.375L259 489.875L257 487.875V485.875L255 483.875V482.875L250.5 478.375L241 475.75L235 471.875L233 470.875L231.5 470.375L228.5 467.375L220.25 466.25L220 464.875L219.5 464.375L218.5 465.375L216.25 465.125L216 463.875L215.5 463.375L214.5 464.375L214 463.875V462.875L213.5 462.375L212.5 463.375L212 462.875V461.875L211.5 461.375L210.5 462.375L210 461.875L209.75 460.625L206.5 460.375L205.5 461.375L204.5 460.375H200.5L199.5 459.375L198.5 460.375L197.5 459.375L196.5 460.375L195.5 459.375L194.5 460.375H193.5L191.5 458.375L190.5 459.375L189.5 458.375H187.5L186.5 457.375L185.5 458.375L184.5 457.375L180.5 456.375L179.5 457.375L178.5 456.375L177.5 457.375H176.5L175.5 456.375L174.5 457.375L173 456.875L171 456.625L156 456.875L144.5 458.375L143.5 459.375L142.5 458.375L141.5 459.375L138 460L136 460.75L132.5 461.375L131.5 462.375L130.5 461.375L129.5 462.375L128 462.75L120 465.75L117.5 466.375L115.5 468.375L113.5 469.375L105 474.875L92.25 485.625L86 493.875L84.5 495.375L83.25 495.625L82.5 497.375L80.5 500.375L74 508.875L72.5 511.375L71.625 513.375L69.625 519.375L67.5 526.375L65 542.875L64 543.875L65 544.875V549.875L66.5 551.375L69.5 552.375L74 556.875L74.375 558.375L75.625 561.375L76 562.875L78 564.875L78.25 576.375L77.5 579.375L75.5 584.375L75 586.375H74.5L74 586.875V588.375ZM89 625.375V624.375H88V625.375H89Z" fill="black"/>
<path fill-rule="evenodd" clip-rule="evenodd" d="M262 384.375L261 383.375V382.375L262 382.875V384.375Z" fill="black"/>
<path fill-rule="evenodd" clip-rule="evenodd" d="M623 364.875L621 366.875V369.875L619.5 371.375H618.5L617.5 372.375L615 369.875L615.625 366.375L618.5 361.375L623.375 349.375L624.75 344.375L625 342.875L624 341.875L625 340.875L624 339.875L625 338.875V333.875L626 332.875L625 331.875L626 330.875L626.5 326.375L629.625 312.375L632.5 304.375L633 300.875L635 298.875L635.625 296.375L641.5 284.375L644.375 279.375L645.25 276.625L646.75 276.125L647 274.875L648.5 273.375L649.75 273.125L650 271.875L653.5 268.375H654.5L658 264.875L658.25 263.625L660 262.875L665 259.875L672.5 254.375L675 253L678 251.875L685 250.125L692.5 249.375L693.5 250.375L694.5 249.375L695.5 250.375H697.5L698.5 251.375L699.5 250.375L700.5 251.375L702 251.875L704 252.875L705.75 253.625L706.25 255.125L707.5 255.375L711 258.875V259.875L713 261.875L714 271.875L715 272.875L714 273.875L715 274.875L714.25 279.375L713 283.875L708 288.875V289.875L706.5 291.375H705.5L703.5 293.375L701 294L699 294.875L694.5 297.375L692 299.875L690.75 303.375L690 313.125L691.75 313.625L692.625 317.375L700.5 327.375L702 329.875L703.5 331.375H704.5L706 332.875L707.5 335.375L710 338.875L711 340.875L713 342.875L713.5 346.375L714.25 349.375V357.375L711.75 362.125L710.5 362.375L709.5 363.375L708.5 362.375L705.25 362.125L705 358.875L709 354.875V352.875L707 350.875V348.875L706 347.875L707 346.875L706 345.875L705 343.875L703 340.875L702 338.875L699.5 336.375H698.5L694 331.875L692.75 328.625L691.25 328.125L686.5 321.375L683.625 315.375L682.75 312.375V303.375L683.25 301.375L684 296.875L687.5 293.375H688.5L692.5 289.375L695 288.75L699 287L701.5 286.375L703 284.875L706.25 279.375L706 264.875L704 262.875L703.75 261.625L702.5 261.375L700.5 259.375L690 256.875H686L679 258.875L675.5 259.375L671.5 263.375H670.5L666.5 267.375H664.5L658.5 273.375L657.25 273.625L657 274.875L650 281.875V283.875L648 285.875L647.5 287.375L643.625 295.375L643 297.875L641 299.875V301.875L639 303.875L638.375 307.375L636.625 312.375L632.625 328.375L629.375 351.375L625.625 359.375L625 361.875L623 363.875V364.875Z" fill="black"/>
<path fill-rule="evenodd" clip-rule="evenodd" d="M495.5 290.375L489.5 294.75L480 296.875H474L465 294.875L460 292.875L453.5 289.375L448.5 285.375L444.25 282.625L444 283.875L440.5 287.375L439 287.75L436 288.875L427.5 288.375L424.5 285.375H423.5L419 280.875L418.625 279.375L417.5 276.375L417 272.875L419 270.875V268.875L420.5 267.375L422 266.875L424 266L427 265L437.75 265.125L437.5 263.375L436.5 261.375L436 259.875L432.5 256.375L431 256L428 254.875L425.5 254.375L424.5 253.375L423.5 254.375L422.5 253.375H421.5L413 261.875L412.5 263.375L410.5 267.375L409.75 269.375L407.375 277.375L405.375 282.375L405 283.875L398.5 290.375L395 291.5L384.5 292.375L383 290.875V289.875L382 288.875L383 287.875V286.875L385.5 284.375L387.5 286.375L392 285.625L395.5 284.375L397 282.875V281.875L399 279.875L399.625 277.375L401.5 272.375L404 262.875L406 260.875L407 257.875L416.5 248.375L418 248L421 246.875L424 246.75L433 249L435 249.875L436.5 250.375L439 252.875L442.5 258.375L446.25 265.375L448.625 273.375L454 280.875L456.5 283.375L458 283.875L466 287.75L470 288.875L476 289.875H480L485 288.75L489.5 287.375L491 285.875L491.25 284.625L492.5 284.375L496.5 280.375L499 282.875L498.375 286.375L498 287.875L495.5 290.375ZM436 281.625L437.75 281.125L441 275.875L439.5 274.375L437 273.75L435 273L432.5 272.375L431.5 271.375L430.5 272.375L429.5 271.375L428.5 272.375H426.5L424 274.875L425.25 278.125L426.75 278.625L427.25 280.125L431 281.625H436ZM439 266.375V265.375H438V266.375H439Z" fill="black"/>
<path fill-rule="evenodd" clip-rule="evenodd" d="M373 379.75L369.5 380.375L368 378.875L369 377.875V376.875L371 374.875L370.25 365.375L367.375 358.375L363 351.875L361 349.875L360.375 347.375L359 344.875L357 341.875L355.625 339.375L354.625 336.375L353.5 331.375L353 326.875L352 325.875L353 324.875L353.625 322.375L353.5 320.375L352.75 318.375V300.375L353.5 298.375L356 293.875L357.5 292.375L358.75 292.125L359 290.875L360.5 289.375L367 285.875L372.5 282.375L376 278.875L377.5 272.375L377.375 268.375L377 266.875L374 263.875L372.75 259.625L367 255.875L365 255.125L360 253.875L355.5 253.375L353.5 255.375L352 255.875L345.5 259.375L344 260.875L340.5 266.375L338.625 270.375L338 272.875L336 274.875L334.375 286.375L333 290.875L331 292.875L330.375 295.375L328.5 299.375L328 300.875L326 302.875V304.875L324.5 306.375L323.25 306.625L323 307.875L321.5 309.375H306.5L305.5 310.375L304.5 309.375L303.5 310.375H301.5L298.5 313.375H297.5L296 314.875L297 315.875L293 319.875L292 321.875L287.625 328.375L287 330.875L285 332.875L286 333.875L284 335.875L285 336.875L282.625 346.375L281.875 354.125L280.5 354.375L280 354.875L281 355.875L280 356.875V358.875L279 359.875L280 360.875L279 361.875L278.5 365.375L276.375 373.375L273.625 379.375L273 381.875L270 384.875L269 387.875L266.5 390.375L262.25 389.125L261 385.875L263 383.875V380.875L265 378.875L264 377.875L265 376.875L265.25 375.625L266.5 375.375L267 374.875L266 373.875L266.5 373.375H267.5L268 372.875L267 371.875L267.5 371.375H268.5L269 370.875L268 369.875L268.25 367.625L269.75 367.125L269 361.875L270 360.875L269 359.875L271.375 351.375L272 346.875L273 345.875L272 344.875L273 343.875L273.5 338.375L276.75 326.375L277.5 324.375L278.5 322.375L287.25 309.625L293 305.875L294.5 305.375L297.5 302.375H303.5L305.5 300.375L306.5 301.375L317.5 302.375L320 299.875V297.875L322 295.875V293.875L324 291.875V288.875L326 286.875L328 271.875L330 269.875L330.625 267.375L333.375 262.375L334 259.875L337 256.875V255.875L339.5 253.375L344 250.875L345.5 250.375L347.5 248.375H349.5L351.5 246.375L353 246.125L360 245.875L369 248L373.5 250.375L380 256.875L380.375 258.375L381.625 261.375L382 262.875L384 264.875V267.875L385 268.875L384 269.875L385 270.875L384 271.875L383.375 275.375L380 283.875L377.5 286.375L376 286.875L367.5 292.375L365.5 293.375L364 294.875L361 299.875L359 301.875L360 307.875L359 308.875L360 309.875V313.875L359 314.875L360 315.875V318.875L361 319.875L360 320.875V323.875L361 324.875L360 325.875L361 328.875L360 329.875L360.5 330.375H361.5L362 330.875L361 331.875L362 332.875L361 333.875L362 334.875V336.875L364 338.875L364.625 341.375L368.5 349.375L372.5 355.375L375.375 362.375L376.25 365.375L376 377.875L374.5 379.375L373 379.75Z" fill="black"/>
<path fill-rule="evenodd" clip-rule="evenodd" d="M74 413L69.25 411.125L66.5 404.375L65.625 400.375L66.75 381.375L67.625 378.375L70.375 372.375L71 369.875L73 367.875L73.5 366.375L76 361.875L77.5 360.375L78.75 360.125L83 353.875L84 351.875L85.5 350.375H86.5L88 348.875L100 334.875L101 332.875L100 331.875L101 330.875L101.5 328.375L102.5 325.375L102 315.875L103 314.875L102 313.875L101.375 310.375L100.75 308.625L99.25 308.125L99 306.875L97 304.875L96.875 300.625L92.5 298.375L91 296.875L90.5 295.375L84.625 285.375L83.375 282.375L83.25 280.375L85 268.875L87 266.875L87.5 265.375L90.5 260.375L91.25 258.625L92.75 258.125L93.25 256.625L108 249L111 248.25L130.5 247.375L131.5 248.375L132.5 247.375L134 247.625L142 249.75L148.5 252.375L160 263.875L161 266.875L163 268.875L163.625 272.375L166.375 277.375L166.625 280.375L164.5 289.375L162 296.875L156.5 302.375L153.25 303.625L152.5 305.375L150.625 309.375L150 311.875L149 312.875L150 313.875L151.75 328.375L152.5 331.375L153 334.875L154 335.875L153 336.875L153.5 339.375L153.375 342.375L153 343.875L151.5 345.375L147 344.125L146 333.875L144 331.875V329.875L145 328.875L144 327.875L143 320.875L144 319.875L143 318.875L142.75 317.375V307.375L144 302.875L146 300.875L147 297.875L149.5 295.375L152.75 294.125L153.25 292.625L154.75 292.125L156.25 287.375L157 280.875L158 279.875L157 278.875L156.5 276.375L154.375 270.375L148 261.875L145.5 259.375L142.5 258.375L140.5 256.375L114 255L107.5 256.375L105.5 258.375L104 258.875L100 260.875L98.5 261.375L97 262.875L96.5 264.375L93.5 269.375L93 270.875L91 272.875V282.875L93 284.875L95.5 289.375L96 290.875L99.5 294.375L101 294.625L107.75 296.625L108 297.875L109 298.875L108 299.875V300.875L106.5 302.375H103L103.5 303.375L104.75 303.625L108.5 309.375L109.25 311.375L109.5 320.375L110 322.875L111 323.875L110 324.875L109.5 328.375L107.25 336.375L107 337.875L105 339.875V341.875L102.5 344.375H101.5L94 351.875V352.875L90.5 356.375L89.25 356.625L88.5 358.375L81 367.875L80 369.875L77 372.875L76.375 375.375L73.75 382.375L72.375 392.375L72.5 397.375L73.75 402.375L75.25 406.125L76.5 406.375L79 408.875L78 409.875V410.875L76.5 412.375L74 413Z" fill="black"/>
<path fill-rule="evenodd" clip-rule="evenodd" d="M558.375 127.375L556.625 133.375L556 135.875L554 137.875L551 142.875L545.5 148.375L542.25 148.125L542.625 144.375L543.25 142.625L544.75 142.125L545.5 140.375L549.5 133.375L550.375 131.375L551.25 128.375L553.5 113.375L554 102.875L553 101.875L554 100.875L554.625 95.375L558.625 79.375L560.5 75.375L561 73.875L566.5 68.375L575 64L578 62.75H580L585.5 64.375L588 66.875L589 69.875L590 70.875L587.5 73.375L586.5 72.375H585.5L582.5 69.375L577 70.125L572.5 72.375L567 77.875L566.5 79.375L565.625 81.375L564.625 84.375L561.875 96.375L558.375 127.375Z" fill="black"/>
<path fill-rule="evenodd" clip-rule="evenodd" d="M370 117.625H354L348.5 116.375L346.5 114.375L342.5 112.375L337 106.875L336.5 105.375L333.625 99.375L332.625 96.375L332.5 90.375L333.5 84.375L334.5 80.375L336.5 75.375L339 70.875L345.5 64.375L352 59.875L354 59L357.75 58.125L358 55.875L361.5 52.375L368 53L372 54L374 54.875L383 60.875L387.5 64.375L390.5 66.375L397 72.875V73.875L399 75.875L399.25 89.375L395.375 99.375L395 100.875L393 102.875L392 106.875L385.5 113.375L384 113.875L382 114.75L370 117.625ZM366.5 111.375L367.5 110.375L372 109.75L379 107.75L383.75 105.125L386.375 100.375L387 97.875L389 95.875L389.5 93.375L391.5 87.375V83.375L390 77.875L383.5 71.375L381 69.875L370.5 62.375L368.25 61.625L367 65.875L365.5 67.375H363.5L360.5 64.375L359.5 65.375L356 66L349.5 70.375L348 71.875L347.75 73.125L346.25 73.625L343.5 78.375L342.625 80.375L340.5 89.375L340.75 96.375L341.5 98.375L342.5 100.375L343 101.875L347.5 106.375L352 108.75L355 109.75L360.5 110.375L361.5 111.375L362.5 110.375L363.5 111.375L364.5 110.375L366.5 111.375Z" fill="black"/>
<path fill-rule="evenodd" clip-rule="evenodd" d="M110.5 112.375L108 113.875L98 118.75L94 119.625L79 119.75L71 118.75L67 117.75L65 116.875L60.5 114.375L59 112.875L55.5 106.375L54.75 104.375L52.375 90.375L52.5 85.375L53.625 81.375L58.375 71.375L59.625 67.375L60.5 65.375L65.25 58.625L67.5 57.375L70.5 55.375L72.5 54.375L74.5 52.375H77L76.5 51.375H73.5L72 49.875L73.5 48.375L97 48.125L109 51L113.5 53.375L115 54.875L117.375 59.375L118 61.875L120 63.875V65.875L122 67.875L122.375 69.375L125.375 77.375V84.375L123.375 95.375L122.375 99.375L120.5 103.375L120 104.875L116.5 108.375L114 109.875L110.5 112.375ZM95 112.625L99 111.875L107 108.875L108.5 108.375L118 98.875L118.5 97.375L119.375 95.375L120.375 92.375L121.625 86.375V83.375L119.5 74.375L114.5 61.375L114 59.875L112.5 58.375L110 57.75L108 56.875L103 53.875L98 51.875L95 51L88.5 50.375L88 50.875L89 51.875L88.75 54.125H79L76.5 55.375L68.5 60.375L67 61.875L66.5 63.375L64.5 67.375L62.375 72.375L59.75 77.375L58.25 83.375L59 88.875L60 89.875L59 90.875L61 100.875L66.5 106.375L68 106.875L72 108.875L77 110.875L83 112.625H95ZM56 90.375V85.875L55 85.375V89.875L56 90.375ZM57 99.375V92.875L56 92.375V98.875L57 99.375ZM93.5 117.375L94 116.375L83 115.625L69 110.875L63.5 107.375L61.5 106.375L59 103.875L58 99.875L57 99.375V99.875L58 105.875L60 107.875V108.875L64.5 113.375L66 113.875L68 114.75L71 115.625L79 116.75L93.5 117.375ZM96.5 116.375L97 115.375H95.5L95 116.375H96.5Z" fill="black"/>
<path fill-rule="evenodd" clip-rule="evenodd" d="M756 147.75L753.5 148.375L749 143.875L747.75 138.625L746.5 138.375L745 136.875L744.5 135.375L743 132.875L738 125.875L736.625 123.375L736 120.875L732 116.875V115.875L730 113.875L729.375 111.375L726.625 105.375L725.75 102.625L724.25 102.125L723 98.875L721 96.875L720.375 94.375L718.5 89.375L718 86.875L717 85.875L718 84.875L717.75 83.375V78.375L718.5 76.375L722.5 68.375L723.25 66.375L725.625 55.375L725.5 52.375L723.5 47.375L721 42.875L718.5 40.375H717.5L712.5 35.375L710 34.75L704 32L701.5 31.375L700.5 30.375L700 30.875L698.75 35.125L696.5 35.375L695 33.875L694.75 31.625L692 31.875L689 33L687.5 33.375L679 41.875L676.5 50.375L676 56.875L678 58.875L678.5 60.375L679.5 62.375L684.375 69.375L686.5 74.375L690.625 84.375L691 85.875L692 86.875L691 87.875L690 93.875L688 95.875L687.375 98.375L686.5 100.375L686 101.875L684 103.875V105.875L682 107.875V109.875L680 111.875L678 115.875L676 117.875L677 118.875L676.5 119.375L675.25 119.625L674 123.875L672 125.875L671.375 129.375L670.75 131.125L669.25 131.625L663.5 141.375L663 142.875L661 144.875V146.875L659 148.875V149.875L656 152.875L657 153.875L655.5 155.375L654.25 155.625L653 158.875L651 160.875L652 161.875L649.5 164.375H646.5L645 162.875V159.875L646 158.875L645 157.875L649 153.875L651.5 149.375L652 147.875L654 145.875V143.875L657 140.875L657.5 139.375L658.375 137.375L659 133.875L661 131.875L664.5 126.375L666.375 122.375L667 119.875L669 117.875V115.875L671 113.875V111.875L673 109.875L676.5 104.375L677.375 102.375L678 99.875L680 97.875L680.625 95.375L682.375 90.375L682.25 83.375L680.625 79.375L680 76.875L678 74.875V72.875L675 69.875L674.5 68.375L669.5 59.375L668.75 57.375L668.5 52.375L671 40.875L673 38.875V37.875L676.5 34.375L677.75 34.125L679.25 30.625L684 28L689 26L691.5 25.375L692.5 24.375L693.5 25.375L694.5 24.375L696 24.125L701 24L703.5 24.375L705.5 26.375L709 27L713 28.75L715.5 29.375L717.5 31.375L724.5 36.375L726 37.875L727 39.875L730.5 45.375L731.375 47.375L732.375 51.375L732.5 59.375L731.375 66.375L730 71.875L728 73.875V75.875L726 77.875V78.875L724 80.875L725 81.875L725.625 86.375L727 91.875L729 93.875L730 96.875L732 98.875V100.875L734 102.875L734.5 104.375L737 108.875L742 115.875L743.5 118.375L753 130.875L755 133.875L756.5 135.375L757.75 135.625L758.5 138.375L759.625 141.375L760 142.875L759 143.875L760 144.875L757.5 147.375L756 147.75Z" fill="black"/>
<path fill-rule="evenodd" clip-rule="evenodd" d="M1057.88 337.125L1055.5 337.375L1054 335.875L1053 328.875L1055 326.875L1053.5 318.375L1052.5 314.375L1051.88 308.625L1050 308.875L1045.5 311.375L1042.5 313.375L1040 314.75L1025 320L1011 325.75L1001 327.625H987L970 324.875L965 322.875L958 317.875L946 312.875L944 311.875L942.5 311.375L941.5 310.375L941 310.875L940.375 313.375L937.625 318.375L935.375 326.375L932.75 333.375V338.375L934 342.875L932.5 344.375H928.5L926 341.875L925.75 340.375V331.375L926.5 328.375L930.375 318.375L931 313.875L933 311.875L933.5 310.375L934.5 308.375L935 306.875L937 304.875L935.75 300.625L934.25 300.125L934 298.875L931.5 296.375L930.25 296.125L929.75 294.625L924.25 291.125L923.75 288.625L922.25 288.125L917.5 273.375L915.75 263.375L916 240.875L917 239.875L916 238.875L917 237.875L917.625 230.375L918.5 226.375L920.5 221.375L928.5 205.375L930.5 202.375L937 193.875L939.5 191.375L943 188.875L959.5 175.375L962 173.875L964 173L980 168.875L985 168.125L1019 169L1030 170.875L1033 172L1034.5 172.375L1035.5 173.375L1036.5 172.375L1037.5 173.375L1039 173.875L1043.5 176.375L1047 179.875V180.875L1048 181.875L1047 182.875L1046.75 184.125L1045 183.875L1040 180.875L1032 177.875L1028 176.875L1022 175.875L1013.5 175.375L1012.5 174.375L1011.5 175.375L1010.5 174.375L990 173.875L984 174.875L968 179L966 179.875L963.5 181.375L954.5 188.375L942 200.875L941.75 202.125L940.25 202.625L936.5 208.375L936 209.875L934 211.875L933.375 214.375L928.625 224.375L927.625 227.375L926.5 233.375L925 250.875L924 251.875L925 252.875L924 253.875L925 254.875V255.875L924 256.875L925 257.875L925.625 264.375L930 282.875L937.5 290.375H938.5L940 291.875L942.25 296.125L945.5 294.375L961.5 282.375L964 280.875L965.5 280.375L966 279.875L964 277.875L962.75 273.375L962.875 261.375L964.75 254.375L965.5 252.375L969 245.875L971.5 242.375L973 239.875L978.5 234.375L980 233.875L988.5 230.375L990.5 228.375L1003 228.125L1004.5 228.375L1007 230.875L1007.25 232.125L1014 234.875L1018.5 237.375L1022 239.875L1024.5 241.375L1029 245.875V246.875L1031 248.875L1031.62 251.375L1033.5 256.375L1034.5 260.375V264.375L1033.5 267.375L1033 269.875L1031 271.875L1030.5 273.375L1029.5 275.375L1025.75 281.125L1024.5 281.375H1024L1024.5 282.375L1034 283L1038 284L1040 284.875L1044.5 287.375L1046 288.875L1048.38 293.375L1049 295.875L1052 298.875L1052.25 300.125L1054.5 300.375L1058.5 296.375L1059.75 296.125L1065.5 286.375L1072 277.875L1075.38 271.375L1077 264.875L1079 262.875L1079.5 261.375L1081.5 257.375L1082.25 255.375L1083.5 248.375L1083 234.875L1084 233.875L1083 232.875V230.875L1084 229.875L1083 228.875L1081.38 222.375L1080.62 220.375L1079.5 216.375L1077.5 211.375L1076.5 209.375L1070 199.875L1064 191.875L1052.5 180.375H1051.5L1047 175.875L1047.12 171.625L1048.5 171.375L1049.5 170.375L1055.5 176.375L1059.75 178.625L1066 186.875L1068 189.875L1069.5 191.375H1070.5L1072 192.875L1072.5 194.375L1080.5 206.375L1086.5 223.375L1087.12 227.375V253.375L1086.38 257.375L1083.5 263.375L1083 264.875L1081 266.875L1079.38 273.375L1078.62 275.375L1078 277.875L1076 279.875L1074.5 282.375L1069 289.875L1066.5 294.375L1063 299.875L1061.5 301.375L1057.5 303.375L1056 304.875V305.875L1057 306.875L1056 307.875L1058.25 317.375L1057.88 337.125ZM1008 287.75L1010 286.875L1012.5 285.375L1019.75 280.125L1024 273.875L1027 270.875V268.875L1029 266.875L1029.5 264.375L1029.62 261.375L1028.38 256.375L1028 253.875L1026 251.875L1022 245.875L1020.5 244.375L1016 241.875L1014.5 241.375L1012.5 239.375L1010 238.75L1008 238L1004 237.125L988 237.25L983.5 238.375L978 243.875L977 245.875L973.5 251.375L972.625 253.375L970.5 259.375L970 262.875L969 263.875L970 264.875L969 265.875L969.75 272.375L973 277.875L974.5 279.375L981 283.875L989 287.75L992 288.75L997 289.875L1002 289.75L1008 287.75ZM1010 319.625L1013 318.875L1020 316L1032 311.875L1038.5 310.375L1040.5 308.375L1046 304.875L1047.75 304.125L1048 301.875L1046 299.875L1042.5 293.375L1041.75 291.625L1037 289L1033 288.125L1020.5 287.375L1018.5 289.375L1017 289.875L1012 292.75L1009.5 293.375L1007.5 295.375L993 295.625L989 294.875L978 289.875L972.5 286.375L970.5 284.375L970 284.875L969.75 286.125L967 287L964.5 288.375L957.5 293.375L955.5 294.375L948 301.875L948.25 304.125L950 304.875L954 306.875L961 309.875L970 315.75L973 316.875L984 319L989.5 320.375L990.5 321.375L991.5 320.375L997.5 321.375L998.5 320.375L999.5 321.375L1000.5 320.375L1010 319.625Z" fill="black"/>
<path fill-rule="evenodd" clip-rule="evenodd" d="M878 277.875L876.5 278.375L874.5 280.375L872 280.75L867 282L864.5 282.375L863.5 281.375L862.5 282.375L861.5 281.375L850 280.75L845 279.625L841.5 278.375L840 279.875V280.875L837 283.875L836.25 301.375L834.375 311.375L833.375 314.375L832.5 316.375L832 317.875L827.5 322.375L823 324.75L820 325.875L816.125 326.125L816 321.875L818.5 319.375L822.5 317.375L826 313.875L826.5 312.375L827.375 310.375L828.5 306.375L831 281.875L833 279.875L834 276.875L836 274.875L834.5 273.375L833.25 273.125L832.5 271.375L831.5 269.375L831 267.875L829 265.875L828 260.875L827 259.875L828 258.875L828.75 249.375L829.5 246.375L832 239.875L838.5 233.375L844 230L847 228.875L850 228.125L859.75 227.375L860.25 225.625L865.5 224.375L866.5 225.375L867.5 224.375L868.5 225.375L874 226.125L876 226.875L878 227.875L879.75 228.625L880.25 230.125L881.75 230.625L882.5 232.375L883.5 234.375L884 235.875L886 237.875L886.625 240.375L888.5 245.375L889.25 249.375V260.375L888.375 263.375L884.5 271.375L884 272.875L879.5 277.375L878 277.875ZM879.5 265.375L881.5 260.375L882.375 257.375L882.5 252.375L881.375 248.375L879.625 244.375L879 241.875L877 239.875V237.875L872.5 233.375L866.25 232.625L866 234.875L864.5 236.375L861.5 237.375L858.5 234.375L852 235L846.5 236.375L841.5 241.375H840.5L839 242.875V243.875L837 245.875L835.625 252.375L835.75 261.375L836.5 263.375L837.5 265.375L838 266.875L842.5 271.375L845 272L847 272.75L851 273.625L864.5 274.375L865.5 275.375L866.5 274.375L871 273.625L874.5 272.375L879.5 265.375Z" fill="black"/>
<path fill-rule="evenodd" clip-rule="evenodd" d="M953.75 148.125L951.5 148.375L949 145.875V142.875L950 141.875L949 140.875L948 118.875L947 117.875L948 116.875L947 113.875L948 112.875L947 111.875L948 110.875L947.5 108.375L945.625 103.375L945 100.875L943 98.875V97.875L941 95.875L940.375 93.375L937.5 87.375L937 85.875L931.5 80.375L930 79.875L922 76.75L920.5 76.375L918.5 74.375H916.5L910.5 68.375H909.5L908 66.875L907 63.875L905 61.875L904.375 58.375L903.875 56.375L903.75 44.375L905 39.875L907.5 37.375L908.75 37.125L909 33.875L910 32.875L909 31.875L910 30.875L908.375 20.375L907.375 16.375L904 10.875L901.5 8.375H898.5L897.5 7.375L896.5 8.375H892.5L891.5 9.375L890.5 8.375H889.5L886 11.875L885.75 13.125L884.5 13.375L882 15.875V17.875L879 20.875L878 46.875L877 47.875L878 48.875L877 49.875L876 61.875L875 62.875L876 63.875L875.375 67.375L873.375 72.375L871 76.875L866.5 81.375L865 81.875L861 83.75L858 84.75L852.5 85.375L849 88.875L847.625 93.375L845 113.875L846 114.875L845 115.875L844.5 125.375L842 140.875L843 141.875L842 142.875L843 143.875L840.5 146.375L839.25 146.125L835.5 140.375L835.375 138.375L836.375 134.375L837 124.875L838 123.875L837 122.875L838 121.875V103.875L839 102.875L838 101.875L839 100.875L839.75 92.375L841 86.875L843 84.875V83.875L847.5 79.375L861.5 75.375L866 70.875L868.5 60.375L870 34.875L869 33.875L870 32.875L869 31.875L870 30.875L869 29.875L870.625 19.375L871.625 16.375L873.5 12.375L874 10.875L883.5 1.375L890 0L901 0.125L906.5 1.375L912 6.875L915.375 13.375L916.5 17.375L917.25 22.375L917 39.875L915 41.875V42.875L911 46.875L911.75 53.375L912.375 55.375L913 58.875L915 60.875L915.25 62.125L916.75 62.625L917.25 64.125L923 67.875L925 68.75L927.75 69.625L928.25 71.125L936.75 74.625L937.25 76.125L938.75 76.625L940 78.875L943.5 84.375L947.5 93.375L950.375 98.375L951.5 101.375L952.25 105.375L954.25 146.375L953.75 148.125Z" fill="black"/>
</svg>
